<?xml version="1.0" encoding="UTF-8" standalone="no"?>
<!DOCTYPE svg PUBLIC "-//W3C//DTD SVG 1.1//EN"
 "http://www.w3.org/Graphics/SVG/1.1/DTD/svg11.dtd">
<!-- Generated by graphviz version 2.38.0 (20140413.2041)
 -->
<!-- Title: diagram Pages: 1 -->
<svg width="406pt" height="191pt"
 viewBox="0.00 0.00 405.50 191.00" xmlns="http://www.w3.org/2000/svg" xmlns:xlink="http://www.w3.org/1999/xlink">
<g id="graph0" class="graph" transform="scale(1 1) rotate(0) translate(4 187)">
<title>diagram</title>
<polygon fill="white" stroke="none" points="-4,4 -4,-187 401.5,-187 401.5,4 -4,4"/>
<!-- predict4s.sgp.SGP4 -->
<g id="node1" class="node"><title>predict4s.sgp.SGP4</title>
<polygon fill="#7996ac" stroke="black" points="-7.10543e-15,-73.5 -7.10543e-15,-109.5 124,-109.5 124,-73.5 -7.10543e-15,-73.5"/>
<text text-anchor="middle" x="62" y="-87.8" font-family="Times,serif" font-size="14.00">predict4s.sgp.SGP4</text>
</g>
<!-- predict4s.sgp.SimpleKeplerEq -->
<g id="node2" class="node"><title>predict4s.sgp.SimpleKeplerEq</title>
<polygon fill="#799f5a" stroke="black" points="178.5,-0.5 178.5,-36.5 361.5,-36.5 361.5,-0.5 178.5,-0.5"/>
<text text-anchor="middle" x="270" y="-14.8" font-family="Times,serif" font-size="14.00">predict4s.sgp.SimpleKeplerEq</text>
</g>
<!-- predict4s.sgp.ref.LaraFirstOrderCorrections -->
<g id="node3" class="node"><title>predict4s.sgp.ref.LaraFirstOrderCorrections</title>
<polygon fill="#799f5a" stroke="black" points="142.5,-73.5 142.5,-109.5 397.5,-109.5 397.5,-73.5 142.5,-73.5"/>
<text text-anchor="middle" x="270" y="-87.8" font-family="Times,serif" font-size="14.00">predict4s.sgp.ref.LaraFirstOrderCorrections</text>
</g>
<!-- predict4s.sgp.ref.LaraFirstOrderCorrections&#45;&gt;predict4s.sgp.SimpleKeplerEq -->
<g id="edge1" class="edge"><title>predict4s.sgp.ref.LaraFirstOrderCorrections&#45;&gt;predict4s.sgp.SimpleKeplerEq</title>
<path fill="none" stroke="black" d="M270,-73.3129C270,-65.2895 270,-55.5475 270,-46.5691"/>
<polygon fill="black" stroke="black" points="273.5,-46.5288 270,-36.5288 266.5,-46.5289 273.5,-46.5288"/>
</g>
<!-- predict4s.sgp.ref.SGP4Lara -->
<g id="node4" class="node"><title>predict4s.sgp.ref.SGP4Lara</title>
<polygon fill="#7996ac" stroke="black" points="82.5,-146.5 82.5,-182.5 249.5,-182.5 249.5,-146.5 82.5,-146.5"/>
<text text-anchor="middle" x="166" y="-160.8" font-family="Times,serif" font-size="14.00">predict4s.sgp.ref.SGP4Lara</text>
</g>
<!-- predict4s.sgp.ref.SGP4Lara&#45;&gt;predict4s.sgp.SGP4 -->
<g id="edge2" class="edge"><title>predict4s.sgp.ref.SGP4Lara&#45;&gt;predict4s.sgp.SGP4</title>
<path fill="none" stroke="black" d="M141.089,-146.494C127.426,-137.166 110.3,-125.474 95.4821,-115.358"/>
<polygon fill="black" stroke="black" points="97.3001,-112.361 87.0678,-109.614 93.3533,-118.143 97.3001,-112.361"/>
</g>
<!-- predict4s.sgp.ref.SGP4Lara&#45;&gt;predict4s.sgp.ref.LaraFirstOrderCorrections -->
<g id="edge3" class="edge"><title>predict4s.sgp.ref.SGP4Lara&#45;&gt;predict4s.sgp.ref.LaraFirstOrderCorrections</title>
<path fill="none" stroke="black" d="M190.911,-146.494C204.574,-137.166 221.7,-125.474 236.518,-115.358"/>
<polygon fill="black" stroke="black" points="238.647,-118.143 244.932,-109.614 234.7,-112.361 238.647,-118.143"/>
</g>
</g>
</svg>
