<?xml version="1.0" encoding="UTF-8" standalone="no"?>
<!DOCTYPE svg PUBLIC "-//W3C//DTD SVG 1.1//EN"
 "http://www.w3.org/Graphics/SVG/1.1/DTD/svg11.dtd">
<!-- Generated by graphviz version 2.38.0 (20140413.2041)
 -->
<!-- Title: diagram Pages: 1 -->
<svg width="914pt" height="191pt"
 viewBox="0.00 0.00 913.50 191.00" xmlns="http://www.w3.org/2000/svg" xmlns:xlink="http://www.w3.org/1999/xlink">
<g id="graph0" class="graph" transform="scale(1 1) rotate(0) translate(4 187)">
<title>diagram</title>
<polygon fill="white" stroke="none" points="-4,4 -4,-187 909.5,-187 909.5,4 -4,4"/>
<!-- predict4s.sgp.SGP4 -->
<g id="node1" class="node"><title>predict4s.sgp.SGP4</title>
<polygon fill="#7996ac" stroke="black" points="0,-0.5 0,-36.5 124,-36.5 124,-0.5 0,-0.5"/>
<text text-anchor="middle" x="62" y="-14.8" font-family="Times,serif" font-size="14.00">predict4s.sgp.SGP4</text>
</g>
<!-- predict4s.sgp.ShortPeriodPolarNodalCorrections -->
<g id="node2" class="node"><title>predict4s.sgp.ShortPeriodPolarNodalCorrections</title>
<polygon fill="#799f5a" stroke="black" points="142.5,-0.5 142.5,-36.5 423.5,-36.5 423.5,-0.5 142.5,-0.5"/>
<text text-anchor="middle" x="283" y="-14.8" font-family="Times,serif" font-size="14.00">predict4s.sgp.ShortPeriodPolarNodalCorrections</text>
</g>
<!-- predict4s.sgp.SimpleKeplerEq -->
<g id="node3" class="node"><title>predict4s.sgp.SimpleKeplerEq</title>
<polygon fill="#799f5a" stroke="black" points="722.5,-0.5 722.5,-36.5 905.5,-36.5 905.5,-0.5 722.5,-0.5"/>
<text text-anchor="middle" x="814" y="-14.8" font-family="Times,serif" font-size="14.00">predict4s.sgp.SimpleKeplerEq</text>
</g>
<!-- predict4s.sgp.ref.LongPeriodSPNCorrections -->
<g id="node4" class="node"><title>predict4s.sgp.ref.LongPeriodSPNCorrections</title>
<polygon fill="#799f5a" stroke="black" points="441.5,-0.5 441.5,-36.5 704.5,-36.5 704.5,-0.5 441.5,-0.5"/>
<text text-anchor="middle" x="573" y="-14.8" font-family="Times,serif" font-size="14.00">predict4s.sgp.ref.LongPeriodSPNCorrections</text>
</g>
<!-- predict4s.sgp.ref.SGP4PN -->
<g id="node5" class="node"><title>predict4s.sgp.ref.SGP4PN</title>
<polygon fill="#7996ac" stroke="black" points="353,-146.5 353,-182.5 513,-182.5 513,-146.5 353,-146.5"/>
<text text-anchor="middle" x="433" y="-160.8" font-family="Times,serif" font-size="14.00">predict4s.sgp.ref.SGP4PN</text>
</g>
<!-- predict4s.sgp.ref.SGP4WithSPNCorrections -->
<g id="node6" class="node"><title>predict4s.sgp.ref.SGP4WithSPNCorrections</title>
<polygon fill="#7996ac" stroke="black" points="159,-73.5 159,-109.5 417,-109.5 417,-73.5 159,-73.5"/>
<text text-anchor="middle" x="288" y="-87.8" font-family="Times,serif" font-size="14.00">predict4s.sgp.ref.SGP4WithSPNCorrections</text>
</g>
<!-- predict4s.sgp.ref.SGP4PN&#45;&gt;predict4s.sgp.ref.SGP4WithSPNCorrections -->
<g id="edge6" class="edge"><title>predict4s.sgp.ref.SGP4PN&#45;&gt;predict4s.sgp.ref.SGP4WithSPNCorrections</title>
<path fill="none" stroke="black" d="M398.269,-146.494C378.418,-136.773 353.325,-124.487 332.093,-114.09"/>
<polygon fill="black" stroke="black" points="333.471,-110.868 322.95,-109.614 330.392,-117.155 333.471,-110.868"/>
</g>
<!-- predict4s.sgp.ref.SPNLongPeriodCorrections -->
<g id="node7" class="node"><title>predict4s.sgp.ref.SPNLongPeriodCorrections</title>
<polygon fill="#799f5a" stroke="black" points="441.5,-73.5 441.5,-109.5 704.5,-109.5 704.5,-73.5 441.5,-73.5"/>
<text text-anchor="middle" x="573" y="-87.8" font-family="Times,serif" font-size="14.00">predict4s.sgp.ref.SPNLongPeriodCorrections</text>
</g>
<!-- predict4s.sgp.ref.SGP4PN&#45;&gt;predict4s.sgp.ref.SPNLongPeriodCorrections -->
<g id="edge7" class="edge"><title>predict4s.sgp.ref.SGP4PN&#45;&gt;predict4s.sgp.ref.SPNLongPeriodCorrections</title>
<path fill="none" stroke="black" d="M466.533,-146.494C485.614,-136.817 509.711,-124.597 530.152,-114.23"/>
<polygon fill="black" stroke="black" points="531.919,-117.258 539.255,-109.614 528.753,-111.015 531.919,-117.258"/>
</g>
<!-- predict4s.sgp.ref.SGP4WithSPNCorrections&#45;&gt;predict4s.sgp.SGP4 -->
<g id="edge3" class="edge"><title>predict4s.sgp.ref.SGP4WithSPNCorrections&#45;&gt;predict4s.sgp.SGP4</title>
<path fill="none" stroke="black" d="M233.867,-73.4937C201.539,-63.3375 160.292,-50.3795 126.31,-39.7035"/>
<polygon fill="black" stroke="black" points="127.064,-36.2717 116.474,-36.6136 124.965,-42.9499 127.064,-36.2717"/>
</g>
<!-- predict4s.sgp.ref.SGP4WithSPNCorrections&#45;&gt;predict4s.sgp.ShortPeriodPolarNodalCorrections -->
<g id="edge5" class="edge"><title>predict4s.sgp.ref.SGP4WithSPNCorrections&#45;&gt;predict4s.sgp.ShortPeriodPolarNodalCorrections</title>
<path fill="none" stroke="black" d="M286.79,-73.3129C286.225,-65.2895 285.539,-55.5475 284.906,-46.5691"/>
<polygon fill="black" stroke="black" points="288.393,-46.2582 284.199,-36.5288 281.41,-46.75 288.393,-46.2582"/>
</g>
<!-- predict4s.sgp.ref.SGP4WithSPNCorrections&#45;&gt;predict4s.sgp.ref.LongPeriodSPNCorrections -->
<g id="edge4" class="edge"><title>predict4s.sgp.ref.SGP4WithSPNCorrections&#45;&gt;predict4s.sgp.ref.LongPeriodSPNCorrections</title>
<path fill="none" stroke="black" d="M356.265,-73.4937C397.82,-63.1414 451.061,-49.8779 494.374,-39.0876"/>
<polygon fill="black" stroke="black" points="495.447,-42.4272 504.305,-36.6136 493.755,-35.6348 495.447,-42.4272"/>
</g>
<!-- predict4s.sgp.ref.SPNLongPeriodCorrections&#45;&gt;predict4s.sgp.SimpleKeplerEq -->
<g id="edge2" class="edge"><title>predict4s.sgp.ref.SPNLongPeriodCorrections&#45;&gt;predict4s.sgp.SimpleKeplerEq</title>
<path fill="none" stroke="black" d="M630.726,-73.4937C665.347,-63.2939 709.561,-50.2682 745.888,-39.5662"/>
<polygon fill="black" stroke="black" points="747.307,-42.797 755.91,-36.6136 745.329,-36.0823 747.307,-42.797"/>
</g>
<!-- predict4s.sgp.ref.SPNLongPeriodCorrections&#45;&gt;predict4s.sgp.ref.LongPeriodSPNCorrections -->
<g id="edge1" class="edge"><title>predict4s.sgp.ref.SPNLongPeriodCorrections&#45;&gt;predict4s.sgp.ref.LongPeriodSPNCorrections</title>
<path fill="none" stroke="black" d="M573,-73.3129C573,-65.2895 573,-55.5475 573,-46.5691"/>
<polygon fill="black" stroke="black" points="576.5,-46.5288 573,-36.5288 569.5,-46.5289 576.5,-46.5288"/>
</g>
</g>
</svg>
