<?xml version="1.0" encoding="UTF-8" standalone="no"?>
<!DOCTYPE svg PUBLIC "-//W3C//DTD SVG 1.1//EN"
 "http://www.w3.org/Graphics/SVG/1.1/DTD/svg11.dtd">
<!-- Generated by graphviz version 2.38.0 (20140413.2041)
 -->
<!-- Title: diagram Pages: 1 -->
<svg width="954pt" height="191pt"
 viewBox="0.00 0.00 954.00 191.00" xmlns="http://www.w3.org/2000/svg" xmlns:xlink="http://www.w3.org/1999/xlink">
<g id="graph0" class="graph" transform="scale(1 1) rotate(0) translate(4 187)">
<title>diagram</title>
<polygon fill="white" stroke="none" points="-4,4 -4,-187 950,-187 950,4 -4,4"/>
<!-- predict4s.sgp.SGP4 -->
<g id="node1" class="node"><title>predict4s.sgp.SGP4</title>
<polygon fill="#7996ac" stroke="black" points="522.5,-0.5 522.5,-36.5 646.5,-36.5 646.5,-0.5 522.5,-0.5"/>
<text text-anchor="middle" x="584.5" y="-14.8" font-family="Times,serif" font-size="14.00">predict4s.sgp.SGP4</text>
</g>
<!-- predict4s.sgp.ShortPeriodPolarNodalCorrections -->
<g id="node2" class="node"><title>predict4s.sgp.ShortPeriodPolarNodalCorrections</title>
<polygon fill="#799f5a" stroke="black" points="665,-0.5 665,-36.5 946,-36.5 946,-0.5 665,-0.5"/>
<text text-anchor="middle" x="805.5" y="-14.8" font-family="Times,serif" font-size="14.00">predict4s.sgp.ShortPeriodPolarNodalCorrections</text>
</g>
<!-- predict4s.sgp.ref.LongPeriodSPNCorrections -->
<g id="node3" class="node"><title>predict4s.sgp.ref.LongPeriodSPNCorrections</title>
<polygon fill="#799f5a" stroke="black" points="241,-0.5 241,-36.5 504,-36.5 504,-0.5 241,-0.5"/>
<text text-anchor="middle" x="372.5" y="-14.8" font-family="Times,serif" font-size="14.00">predict4s.sgp.ref.LongPeriodSPNCorrections</text>
</g>
<!-- predict4s.sgp.ref.LyddaneLongPeriodCorrections -->
<g id="node4" class="node"><title>predict4s.sgp.ref.LyddaneLongPeriodCorrections</title>
<polygon fill="#799f5a" stroke="black" points="152,-73.5 152,-109.5 437,-109.5 437,-73.5 152,-73.5"/>
<text text-anchor="middle" x="294.5" y="-87.8" font-family="Times,serif" font-size="14.00">predict4s.sgp.ref.LyddaneLongPeriodCorrections</text>
</g>
<!-- predict4s.sgp.ref.LyddaneLongPeriodCorrections&#45;&gt;predict4s.sgp.ref.LongPeriodSPNCorrections -->
<g id="edge1" class="edge"><title>predict4s.sgp.ref.LyddaneLongPeriodCorrections&#45;&gt;predict4s.sgp.ref.LongPeriodSPNCorrections</title>
<path fill="none" stroke="black" d="M313.382,-73.3129C323.25,-64.3302 335.485,-53.1933 346.259,-43.3856"/>
<polygon fill="black" stroke="black" points="348.753,-45.8486 353.792,-36.5288 344.041,-40.672 348.753,-45.8486"/>
</g>
<!-- predict4s.sgp.ref.TwoTermsKeplerEq -->
<g id="node7" class="node"><title>predict4s.sgp.ref.TwoTermsKeplerEq</title>
<polygon fill="#799f5a" stroke="black" points="0,-0.5 0,-36.5 223,-36.5 223,-0.5 0,-0.5"/>
<text text-anchor="middle" x="111.5" y="-14.8" font-family="Times,serif" font-size="14.00">predict4s.sgp.ref.TwoTermsKeplerEq</text>
</g>
<!-- predict4s.sgp.ref.LyddaneLongPeriodCorrections&#45;&gt;predict4s.sgp.ref.TwoTermsKeplerEq -->
<g id="edge2" class="edge"><title>predict4s.sgp.ref.LyddaneLongPeriodCorrections&#45;&gt;predict4s.sgp.ref.TwoTermsKeplerEq</title>
<path fill="none" stroke="black" d="M250.667,-73.4937C224.939,-63.5119 192.235,-50.8236 164.996,-40.2554"/>
<polygon fill="black" stroke="black" points="166.199,-36.9677 155.61,-36.6136 163.667,-43.4937 166.199,-36.9677"/>
</g>
<!-- predict4s.sgp.ref.SGP4Vallado -->
<g id="node5" class="node"><title>predict4s.sgp.ref.SGP4Vallado</title>
<polygon fill="#7996ac" stroke="black" points="347,-146.5 347,-182.5 532,-182.5 532,-146.5 347,-146.5"/>
<text text-anchor="middle" x="439.5" y="-160.8" font-family="Times,serif" font-size="14.00">predict4s.sgp.ref.SGP4Vallado</text>
</g>
<!-- predict4s.sgp.ref.SGP4Vallado&#45;&gt;predict4s.sgp.ref.LyddaneLongPeriodCorrections -->
<g id="edge7" class="edge"><title>predict4s.sgp.ref.SGP4Vallado&#45;&gt;predict4s.sgp.ref.LyddaneLongPeriodCorrections</title>
<path fill="none" stroke="black" d="M404.769,-146.494C384.918,-136.773 359.825,-124.487 338.593,-114.09"/>
<polygon fill="black" stroke="black" points="339.971,-110.868 329.45,-109.614 336.892,-117.155 339.971,-110.868"/>
</g>
<!-- predict4s.sgp.ref.SGP4WithSPNCorrections -->
<g id="node6" class="node"><title>predict4s.sgp.ref.SGP4WithSPNCorrections</title>
<polygon fill="#7996ac" stroke="black" points="455.5,-73.5 455.5,-109.5 713.5,-109.5 713.5,-73.5 455.5,-73.5"/>
<text text-anchor="middle" x="584.5" y="-87.8" font-family="Times,serif" font-size="14.00">predict4s.sgp.ref.SGP4WithSPNCorrections</text>
</g>
<!-- predict4s.sgp.ref.SGP4Vallado&#45;&gt;predict4s.sgp.ref.SGP4WithSPNCorrections -->
<g id="edge6" class="edge"><title>predict4s.sgp.ref.SGP4Vallado&#45;&gt;predict4s.sgp.ref.SGP4WithSPNCorrections</title>
<path fill="none" stroke="black" d="M474.231,-146.494C494.082,-136.773 519.175,-124.487 540.407,-114.09"/>
<polygon fill="black" stroke="black" points="542.108,-117.155 549.55,-109.614 539.029,-110.868 542.108,-117.155"/>
</g>
<!-- predict4s.sgp.ref.SGP4WithSPNCorrections&#45;&gt;predict4s.sgp.SGP4 -->
<g id="edge3" class="edge"><title>predict4s.sgp.ref.SGP4WithSPNCorrections&#45;&gt;predict4s.sgp.SGP4</title>
<path fill="none" stroke="black" d="M584.5,-73.3129C584.5,-65.2895 584.5,-55.5475 584.5,-46.5691"/>
<polygon fill="black" stroke="black" points="588,-46.5288 584.5,-36.5288 581,-46.5289 588,-46.5288"/>
</g>
<!-- predict4s.sgp.ref.SGP4WithSPNCorrections&#45;&gt;predict4s.sgp.ShortPeriodPolarNodalCorrections -->
<g id="edge5" class="edge"><title>predict4s.sgp.ref.SGP4WithSPNCorrections&#45;&gt;predict4s.sgp.ShortPeriodPolarNodalCorrections</title>
<path fill="none" stroke="black" d="M637.435,-73.4937C669.048,-63.3375 709.382,-50.3795 742.613,-39.7035"/>
<polygon fill="black" stroke="black" points="743.781,-43.0046 752.231,-36.6136 741.64,-36.3401 743.781,-43.0046"/>
</g>
<!-- predict4s.sgp.ref.SGP4WithSPNCorrections&#45;&gt;predict4s.sgp.ref.LongPeriodSPNCorrections -->
<g id="edge4" class="edge"><title>predict4s.sgp.ref.SGP4WithSPNCorrections&#45;&gt;predict4s.sgp.ref.LongPeriodSPNCorrections</title>
<path fill="none" stroke="black" d="M533.721,-73.4937C503.525,-63.3811 465.035,-50.4906 433.237,-39.8411"/>
<polygon fill="black" stroke="black" points="434.194,-36.4705 423.6,-36.6136 431.971,-43.1082 434.194,-36.4705"/>
</g>
</g>
</svg>
